<svg width="18" height="21" viewBox="0 0 18 21" fill="none" xmlns="http://www.w3.org/2000/svg">
<path d="M1.5 7.97522V19.2732H16.5V7.97522L9.00001 1.72622L1.5 7.97522ZM0.27 7.04822L8.52001 0.173719C8.65477 0.0614689 8.82462 0 9.00001 0C9.1754 0 9.34524 0.0614689 9.48001 0.173719L17.73 7.04822C17.8145 7.11858 17.8824 7.20664 17.9291 7.30618C17.9758 7.40572 18 7.5143 18 7.62423V20.0232C18 20.2221 17.921 20.4129 17.7803 20.5536C17.6397 20.6942 17.4489 20.7732 17.25 20.7732H0.750001C0.551088 20.7732 0.360323 20.6942 0.21967 20.5536C0.0790178 20.4129 0 20.2221 0 20.0232V7.62423C4.12202e-05 7.5143 0.0242478 7.40572 0.0709059 7.30618C0.117564 7.20664 0.185533 7.11858 0.27 7.04822Z" fill="white"/>
</svg>
