<svg width="26" height="18" viewBox="0 0 26 18" fill="none" xmlns="http://www.w3.org/2000/svg">
<path d="M18.6429 13.5C20.8543 13.5 23.4643 14.5286 23.7857 15.1457V16.0714H13.5V15.1457C13.8214 14.5286 16.4314 13.5 18.6429 13.5ZM18.6429 11.5714C16.29 11.5714 11.5714 12.7543 11.5714 15.1071V18H25.7143V15.1071C25.7143 12.7543 20.9957 11.5714 18.6429 11.5714ZM9 10.2857C6.00429 10.2857 0 11.79 0 14.7857V18H9V16.0714H1.92857V14.7857C1.92857 13.9757 5.51571 12.0086 10.0543 12.2143C10.6065 11.5528 11.2837 11.0067 12.0471 10.6071C11.0442 10.4016 10.0237 10.294 9 10.2857ZM9 1.92857C9.38144 1.92857 9.7543 2.04168 10.0715 2.25359C10.3886 2.46551 10.6358 2.76671 10.7818 3.11911C10.9277 3.47151 10.9659 3.85928 10.8915 4.23339C10.8171 4.6075 10.6334 4.95113 10.3637 5.22085C10.094 5.49056 9.75035 5.67424 9.37625 5.74866C9.00214 5.82307 8.61437 5.78488 8.26197 5.63891C7.90957 5.49294 7.60837 5.24575 7.39645 4.9286C7.18454 4.61145 7.07143 4.23858 7.07143 3.85714C7.07143 3.34565 7.27462 2.85511 7.63629 2.49344C7.99797 2.13176 8.48851 1.92857 9 1.92857ZM9 0C8.23713 0 7.49139 0.226218 6.85709 0.650046C6.22278 1.07387 5.7284 1.67628 5.43646 2.38108C5.14453 3.08588 5.06814 3.86142 5.21697 4.60963C5.3658 5.35785 5.73316 6.04512 6.27259 6.58456C6.81202 7.12399 7.4993 7.49134 8.24751 7.64017C8.99572 7.789 9.77126 7.71262 10.4761 7.42068C11.1809 7.12874 11.7833 6.63436 12.2071 6.00006C12.6309 5.36575 12.8571 4.62001 12.8571 3.85714C12.8571 2.83416 12.4508 1.85309 11.7274 1.12973C11.0041 0.406377 10.023 0 9 0ZM18.6429 4.5C18.8971 4.5 19.1457 4.57541 19.3572 4.71668C19.5686 4.85796 19.7334 5.05876 19.8307 5.29369C19.928 5.52863 19.9535 5.78714 19.9039 6.03654C19.8543 6.28595 19.7318 6.51504 19.552 6.69485C19.3722 6.87466 19.1431 6.99711 18.8937 7.04672C18.6443 7.09633 18.3858 7.07087 18.1508 6.97356C17.9159 6.87625 17.7151 6.71145 17.5738 6.50002C17.4325 6.28858 17.3571 6.04 17.3571 5.78571C17.3571 5.44472 17.4926 5.1177 17.7337 4.87658C17.9748 4.63546 18.3019 4.5 18.6429 4.5ZM18.6429 2.57143C18.0071 2.57143 17.3857 2.75994 16.8571 3.11313C16.3285 3.46632 15.9165 3.96833 15.6732 4.55566C15.43 5.14299 15.3663 5.78928 15.4903 6.41279C15.6144 7.0363 15.9205 7.60903 16.37 8.05856C16.8195 8.50808 17.3923 8.81421 18.0158 8.93824C18.6393 9.06226 19.2856 8.99861 19.8729 8.75533C20.4602 8.51205 20.9622 8.10006 21.3154 7.57148C21.6686 7.04289 21.8571 6.42144 21.8571 5.78571C21.8571 4.93323 21.5185 4.11567 20.9157 3.51287C20.3129 2.91008 19.4953 2.57143 18.6429 2.57143Z" fill="white"/>
</svg>
