<svg width="21" height="12" viewBox="0 0 21 12" fill="none" xmlns="http://www.w3.org/2000/svg">
<path d="M10.2857 0C9.49006 0 8.727 0.316071 8.16439 0.87868C7.60179 1.44129 7.28571 2.20435 7.28571 3C7.28571 3.79565 7.60179 4.55871 8.16439 5.12132C8.727 5.68393 9.49006 6 10.2857 6C11.0814 6 11.8444 5.68393 12.407 5.12132C12.9696 4.55871 13.2857 3.79565 13.2857 3C13.2857 2.20435 12.9696 1.44129 12.407 0.87868C11.8444 0.316071 11.0814 0 10.2857 0ZM10.2857 1.71429C10.6267 1.71429 10.9537 1.84974 11.1949 2.09086C11.436 2.33198 11.5714 2.65901 11.5714 3C11.5714 3.34099 11.436 3.66802 11.1949 3.90914C10.9537 4.15026 10.6267 4.28571 10.2857 4.28571C9.94472 4.28571 9.61769 4.15026 9.37658 3.90914C9.13546 3.66802 9 3.34099 9 3C9 2.65901 9.13546 2.33198 9.37658 2.09086C9.61769 1.84974 9.94472 1.71429 10.2857 1.71429ZM4.71429 2.57143C4.14596 2.57143 3.60092 2.79719 3.19906 3.19906C2.79719 3.60092 2.57143 4.14596 2.57143 4.71429C2.57143 5.52 3.02571 6.21429 3.67714 6.58286C3.98571 6.75429 4.33714 6.85714 4.71429 6.85714C5.09143 6.85714 5.44286 6.75429 5.75143 6.58286C6.06857 6.40286 6.33429 6.14571 6.53143 5.83714C5.90699 5.02335 5.56944 4.02576 5.57143 3V2.76C5.31429 2.64 5.02286 2.57143 4.71429 2.57143ZM15.8571 2.57143C15.5486 2.57143 15.2571 2.64 15 2.76V3C15 4.02857 14.6657 5.02286 14.04 5.83714C14.1429 6 14.2543 6.12857 14.3829 6.25714C14.778 6.64053 15.3066 6.85562 15.8571 6.85714C16.2343 6.85714 16.5857 6.75429 16.8943 6.58286C17.5457 6.21429 18 5.52 18 4.71429C18 4.14596 17.7742 3.60092 17.3724 3.19906C16.9705 2.79719 16.4255 2.57143 15.8571 2.57143ZM10.2857 7.71429C8.28 7.71429 4.28571 8.71714 4.28571 10.7143V12H16.2857V10.7143C16.2857 8.71714 12.2914 7.71429 10.2857 7.71429ZM4.03714 8.18571C2.38286 8.38286 0 9.22286 0 10.7143V12H2.57143V10.3457C2.57143 9.48 3.16286 8.76 4.03714 8.18571ZM16.5343 8.18571C17.4086 8.76 18 9.48 18 10.3457V12H20.5714V10.7143C20.5714 9.22286 18.1886 8.38286 16.5343 8.18571ZM10.2857 9.42857C11.5971 9.42857 13.0629 9.85714 13.9114 10.2857H6.66C7.50857 9.85714 8.97429 9.42857 10.2857 9.42857Z" fill="white"/>
</svg>
