<svg width="17" height="17" viewBox="0 0 17 17" fill="none" xmlns="http://www.w3.org/2000/svg">
<path d="M14.5284 2.08933C14.5381 2.28562 14.7023 2.45282 14.898 2.46615C15.2654 2.49049 15.6207 2.60703 15.9312 2.80498C16.2417 3.00294 16.4972 3.27594 16.6743 3.59877C16.8514 3.9216 16.9443 4.28384 16.9444 4.65205C16.9445 5.02026 16.8518 5.38255 16.6749 5.70547C16.1411 6.68145 14.9604 7.04857 13.9856 6.69901C13.5204 6.53181 12.9545 6.51303 12.6044 6.86259L6.84301 12.6251C6.50011 12.9674 6.50981 13.5175 6.67095 13.9737L6.68186 14.0064C6.86731 14.5571 6.82642 15.1589 6.56818 15.6795C6.30995 16.2001 5.85551 16.5967 5.30483 16.7823C4.15801 17.1688 3.07723 16.6266 2.69072 15.4798C2.62124 15.252 2.58572 15.0152 2.58531 14.777C2.58276 14.6805 2.54358 14.5886 2.47573 14.52C2.40788 14.4514 2.31644 14.4111 2.22 14.4075C1.85105 14.4002 1.43849 14.3305 1.13921 14.167C0.88676 14.0288 0.663996 13.8422 0.483645 13.618C0.303293 13.3937 0.168887 13.1361 0.0881016 12.8599C0.00731653 12.5836 -0.0182649 12.2942 0.0128182 12.0081C0.0439012 11.722 0.13104 11.4448 0.269258 11.1924C0.802379 10.2176 1.9813 9.84928 2.95546 10.1976C3.42013 10.3636 3.98414 10.3812 4.3337 10.0322L10.0993 4.26604C10.441 3.92436 10.4325 3.37549 10.2719 2.91991C10.1992 2.71402 10.1577 2.49837 10.149 2.28017C10.1425 2.11256 10.1546 1.94777 10.1853 1.78582C10.2442 1.47211 10.3711 1.17513 10.5573 0.91586C10.726 0.679255 10.9403 0.478753 11.1876 0.326133C11.4349 0.173513 11.7102 0.0718517 11.9973 0.027122C12.2445 -0.0122214 12.4965 -0.00873756 12.7425 0.037421C13.0581 0.0963101 13.3568 0.224151 13.6173 0.411818C13.8509 0.578777 14.0492 0.790217 14.2009 1.03401C14.3526 1.2778 14.4546 1.54914 14.5012 1.83246C14.5157 1.91849 14.5248 2.00411 14.5284 2.08933Z" fill="#DCD4E1"/>
</svg>
