<svg width="16" height="14" viewBox="0 0 16 14" fill="none" xmlns="http://www.w3.org/2000/svg">
<path fill-rule="evenodd" clip-rule="evenodd" d="M14.3214 0.0933715C14.5178 0.010696 14.7328 -0.0178182 14.944 0.0107964C15.1552 0.039411 15.3549 0.124109 15.5222 0.256073C15.6896 0.388038 15.8185 0.562445 15.8956 0.761142C15.9726 0.95984 15.995 1.17556 15.9605 1.38586L14.1576 12.3211C13.9828 13.3759 12.8254 13.9808 11.858 13.4554C11.0488 13.0159 9.84697 12.3386 8.76593 11.632C8.2254 11.2782 6.56965 10.1455 6.77315 9.3395C6.94802 8.65033 9.73013 6.06059 11.3199 4.52089C11.9439 3.91598 11.6593 3.56703 10.9225 4.12345C9.09263 5.50496 6.15472 7.60585 5.18337 8.19725C4.32648 8.71869 3.87976 8.80772 3.34559 8.71869C2.37106 8.55654 1.46727 8.30535 0.729617 7.99932C-0.267171 7.58598 -0.218683 6.21559 0.728823 5.81656L14.3214 0.0933715Z" fill="#DED7E3"/>
</svg>
