<svg width="17" height="23" viewBox="0 0 17 23" fill="none" xmlns="http://www.w3.org/2000/svg">
<path d="M13.4547 0L9.12305 6.47833H11.2697L16.0997 0H13.4547Z" fill="#428BC1"/>
<path d="M11.2699 0L6.97656 6.47833H9.12323L13.4549 0H11.2699Z" fill="#E8E8E8"/>
<path d="M9.12341 0L4.83008 6.47833H6.97674L11.2701 0H9.12341Z" fill="#ED4C5C"/>
<path d="M8.04974 22.9999C12.4109 22.9999 15.9464 19.4644 15.9464 15.1032C15.9464 10.742 12.4109 7.20654 8.04974 7.20654C3.68853 7.20654 0.153076 10.742 0.153076 15.1032C0.153076 19.4644 3.68853 22.9999 8.04974 22.9999Z" fill="#FFCE31"/>
<path d="M4.10147 5.02173C3.9098 5.02173 3.75647 5.17506 3.75647 5.36673V8.58672C3.75647 8.77839 3.9098 8.93172 4.10147 8.93172H11.9981C12.1898 8.93172 12.3431 8.77839 12.3431 8.58672V5.36673C12.3431 5.17506 12.1898 5.02173 11.9981 5.02173H4.10147ZM11.6531 7.55173C11.6531 7.74339 11.4998 7.89673 11.3081 7.89673H4.8298C4.63814 7.89673 4.4848 7.74339 4.4848 7.55173V6.09506C4.4848 5.90339 4.63814 5.75006 4.8298 5.75006H11.3081C11.4998 5.75006 11.6531 5.90339 11.6531 6.09506V7.55173Z" fill="#FFCE31"/>
<path opacity="0.5" d="M1.26468 16.0234C1.26468 11.7301 4.56135 8.24173 8.77801 7.93506C8.58634 7.93506 8.35634 7.89673 8.16467 7.89673C4.13968 7.89673 0.881348 11.1551 0.881348 15.2184C0.881348 16.4067 1.18801 17.5567 1.68635 18.5534C1.41801 17.7484 1.26468 16.9051 1.26468 16.0234Z" fill="#89664C"/>
<path opacity="0.33" d="M11.0781 21.1983C14.6431 18.8216 15.7164 14.1833 13.6464 10.58L13.9914 11.04C16.2147 14.3366 15.2947 18.8216 11.9597 21.0833C10.9631 21.7733 9.85141 22.1566 8.73975 22.2716C9.58308 22.0416 10.3497 21.6966 11.0781 21.1983Z" fill="white"/>
<path d="M4.83 6.47833H6.97666L2.645 0H0L4.83 6.47833Z" fill="#ED4C5C"/>
<path d="M6.97619 6.47833H9.12286L4.82953 0H2.64453L6.97619 6.47833Z" fill="#E8E8E8"/>
<path opacity="0.5" d="M8.39462 1.07336L7.32129 2.68336L9.85129 6.47836H11.2696L11.653 5.94169L8.39462 1.07336Z" fill="#3E4347"/>
<path d="M9.12341 6.47833H11.2701L6.97674 0H4.83008L9.12341 6.47833Z" fill="#428BC1"/>
<path opacity="0.5" d="M6.05664 12.7266V13.11C6.43997 13.11 6.78497 13.0333 7.12997 12.88V12.3433C6.82331 12.5733 6.47831 12.6883 6.05664 12.7266ZM8.58664 10.235H8.93164V18.515H8.58664V10.235ZM10.0433 18.86V19.9333H6.05664V20.3166H10.3883V18.86H10.0433Z" fill="#89664C"/>
<path opacity="0.33" d="M8.93118 18.515H10.0045V18.86H8.93118V18.515ZM7.51285 10.235H8.58618V9.89001H7.12952C7.12952 10.695 6.47785 11.3467 5.67285 11.3467V12.765C5.78785 12.765 5.90285 12.765 6.01785 12.7267V11.6533C6.86118 11.6917 7.51285 11.04 7.51285 10.235ZM7.51285 18.86V12.7267C7.39785 12.8033 7.28285 12.8417 7.16785 12.9183V18.515H5.71119V19.9333H6.05618V18.86H7.51285Z" fill="white"/>
</svg>
