<svg width="17" height="24" viewBox="0 0 17 24" fill="none" xmlns="http://www.w3.org/2000/svg">
<path d="M13.4547 0.357178L9.12305 6.83551H11.2697L16.0997 0.357178H13.4547Z" fill="#428BC1"/>
<path d="M11.2703 0.357178L6.97693 6.83551H9.1236L13.4553 0.357178H11.2703Z" fill="#E8E8E8"/>
<path d="M9.12317 0.357178L4.82983 6.83551H6.9765L11.2698 0.357178H9.12317Z" fill="#ED4C5C"/>
<path d="M8.04999 23.3571C12.4112 23.3571 15.9467 19.8216 15.9467 15.4604C15.9467 11.0992 12.4112 7.56372 8.04999 7.56372C3.68878 7.56372 0.15332 11.0992 0.15332 15.4604C0.15332 19.8216 3.68878 23.3571 8.04999 23.3571Z" fill="#B2C1C0"/>
<path d="M4.10123 5.37891C3.90956 5.37891 3.75623 5.53224 3.75623 5.72391V8.94391C3.75623 9.13557 3.90956 9.28891 4.10123 9.28891H11.9979C12.1896 9.28891 12.3429 9.13557 12.3429 8.94391V5.72391C12.3429 5.53224 12.1896 5.37891 11.9979 5.37891H4.10123ZM11.6529 7.90891C11.6529 8.10057 11.4996 8.25391 11.3079 8.25391H4.82956C4.63789 8.25391 4.48456 8.10057 4.48456 7.90891V6.45224C4.48456 6.26057 4.63789 6.10724 4.82956 6.10724H11.3079C11.4996 6.10724 11.6529 6.26057 11.6529 6.45224V7.90891Z" fill="#B2C1C0"/>
<path opacity="0.5" d="M1.2648 16.3805C1.2648 12.0871 4.56147 8.59878 8.77814 8.29212C8.58647 8.29212 8.35647 8.25378 8.16481 8.25378C4.1398 8.25378 0.88147 11.5121 0.88147 15.5755C0.88147 16.7638 1.18814 17.9138 1.68647 18.9105C1.41814 18.1055 1.2648 17.2621 1.2648 16.3805Z" fill="#3E4347"/>
<path opacity="0.33" d="M11.0777 21.5555C14.6427 19.1788 15.7161 14.5405 13.646 10.9371C13.761 11.0905 13.876 11.2438 13.991 11.4355C16.2144 14.7321 15.2944 19.2171 11.9594 21.4788C10.9627 22.1688 9.85105 22.5521 8.73938 22.6671C9.58271 22.3988 10.3494 22.0538 11.0777 21.5555Z" fill="white"/>
<path d="M4.83 6.83551H6.97667L2.645 0.357178H0L4.83 6.83551Z" fill="#ED4C5C"/>
<path d="M6.97706 6.83551H9.12372L4.83039 0.357178H2.64539L6.97706 6.83551Z" fill="#E8E8E8"/>
<path opacity="0.5" d="M8.39523 1.43066L7.3219 3.04066L9.8519 6.83567H11.2702L11.6536 6.299L8.39523 1.43066Z" fill="#3E4347"/>
<path d="M9.12317 6.83551H11.2698L6.9765 0.357178H4.82983L9.12317 6.83551Z" fill="#428BC1"/>
<path opacity="0.5" d="M7.858 11.6656C7.053 11.6656 6.40134 12.3172 6.40134 13.0839H5.36634C5.36634 13.1989 5.328 13.3139 5.328 13.4289H6.78467C6.78467 12.6239 7.43634 11.9722 8.24134 11.9722C8.54801 11.9722 8.81634 12.0872 9.04634 12.2406C8.778 11.9339 8.35634 11.6656 7.858 11.6656ZM10.733 20.2906H5.36634V20.6739H11.1163V19.2172H10.733V20.2906ZM7.858 15.9972C7.053 15.9972 6.40134 16.6489 6.40134 17.4539V18.9106H6.74634V17.8372C6.74634 17.0322 7.39801 16.3806 8.20301 16.3806C9.77467 16.3806 11.078 15.0772 11.078 13.5056C11.078 12.6239 10.6947 11.8189 10.043 11.2822C10.4647 11.7806 10.733 12.4322 10.733 13.1222C10.733 14.6939 9.46801 15.9972 7.858 15.9972Z" fill="#3E4347"/>
<path opacity="0.33" d="M6.78482 18.8722H10.7332V19.2172H6.78482V18.8722ZM8.24149 14.9239C9.04649 14.9239 9.69816 14.2722 9.69816 13.4672C9.69816 12.9689 9.46816 12.5472 9.08482 12.2789C9.23816 12.5089 9.35316 12.7772 9.35316 13.0839C9.35316 13.8889 8.70149 14.5405 7.89649 14.5405C6.32482 14.5405 5.02149 15.8439 5.02149 17.4155V20.2905H5.36649V17.7605C5.36649 16.1889 6.63149 14.9239 8.24149 14.9239ZM8.24149 10.5922C8.93149 10.5922 9.58316 10.8605 10.0815 11.2822C9.54482 10.6689 8.77816 10.2472 7.85816 10.2472C6.28649 10.2472 4.98315 11.5505 4.98315 13.1222H5.36649C5.55815 11.7039 6.74649 10.5922 8.24149 10.5922Z" fill="white"/>
</svg>
