<svg width="24" height="24" viewBox="0 0 24 24" fill="none" xmlns="http://www.w3.org/2000/svg">
<path d="M17.3713 1L13.0665 7.47833H15.1999L19.9999 1H17.3713Z" fill="#428BC1"/>
<path d="M15.2 1L10.9333 7.47833H13.0667L17.3714 1H15.2Z" fill="#E8E8E8"/>
<path d="M13.0667 1L8.80005 7.47833H10.9334L15.2 1H13.0667Z" fill="#ED4C5C"/>
<path d="M12 24C16.3341 24 19.8476 20.4645 19.8476 16.1033C19.8476 11.7421 16.3341 8.20667 12 8.20667C7.66584 8.20667 4.15234 11.7421 4.15234 16.1033C4.15234 20.4645 7.66584 24 12 24Z" fill="#D3976E"/>
<path d="M8.07613 6.02161C7.88566 6.02161 7.73328 6.17494 7.73328 6.36661V9.58661C7.73328 9.77827 7.88566 9.93161 8.07613 9.93161H15.9237C16.1142 9.93161 16.2666 9.77827 16.2666 9.58661V6.36661C16.2666 6.17494 16.1142 6.02161 15.9237 6.02161H8.07613ZM15.5809 8.55161C15.5809 8.74327 15.4285 8.89661 15.238 8.89661H8.79994C8.60947 8.89661 8.45709 8.74327 8.45709 8.55161V7.09494C8.45709 6.90327 8.60947 6.74994 8.79994 6.74994H15.238C15.4285 6.74994 15.5809 6.90327 15.5809 7.09494V8.55161Z" fill="#D3976E"/>
<path opacity="0.5" d="M5.25693 17.0233C5.25693 12.7299 8.53312 9.24161 12.7236 8.93494C12.5331 8.93494 12.3045 8.89661 12.1141 8.89661C8.11407 8.89661 4.87598 12.1549 4.87598 16.2183C4.87598 17.4066 5.18074 18.5566 5.67598 19.5533C5.40931 18.7483 5.25693 17.9049 5.25693 17.0233Z" fill="#3E4347"/>
<path opacity="0.33" d="M15.0094 22.1983C18.5522 19.8216 19.6189 15.1833 17.5617 11.58L17.9046 12.04C20.1141 15.3366 19.1998 19.8216 15.8855 22.0833C14.8951 22.7733 13.7903 23.1566 12.6855 23.2716C13.5236 23.0416 14.2855 22.6966 15.0094 22.1983Z" fill="white"/>
<path d="M8.79999 7.47833H10.9333L6.62857 1H4L8.79999 7.47833Z" fill="#ED4C5C"/>
<path d="M10.9333 7.47833H13.0666L8.79997 1H6.62854L10.9333 7.47833Z" fill="#E8E8E8"/>
<path opacity="0.5" d="M12.343 2.07336L11.2764 3.68336L13.7906 7.47836H15.2002L15.5811 6.9417L12.343 2.07336Z" fill="#3E4347"/>
<path d="M13.0667 7.47833H15.2L10.9334 1H8.80005L13.0667 7.47833Z" fill="#428BC1"/>
<path opacity="0.5" d="M11.8097 12.3084C11.0097 12.3084 10.3621 12.9601 10.3621 13.7267H9.33351C9.33351 13.8417 9.29541 13.9567 9.29541 14.0717H10.743C10.743 13.2667 11.3906 12.6151 12.1906 12.6151C12.4954 12.6151 12.7621 12.7301 12.9906 12.8834C12.724 12.5767 12.3049 12.3084 11.8097 12.3084ZM14.0573 16.2567C14.6668 15.7201 15.0478 14.9534 15.0478 14.1101C15.0478 13.2284 14.6668 12.4234 14.0192 11.8867C14.4383 12.3851 14.7049 13.0367 14.7049 13.7267C14.7049 14.5701 14.324 15.3751 13.7145 15.8734C14.324 16.4101 14.7049 17.1767 14.7049 18.0201C14.7049 19.5917 13.4097 20.8951 11.8478 20.8951C11.1621 20.8951 10.5145 20.6267 10.0192 20.2051C10.5526 20.8184 11.3145 21.2401 12.2287 21.2401C13.7906 21.2401 15.0859 19.9367 15.0859 18.3651C15.0478 17.5601 14.6668 16.7934 14.0573 16.2567Z" fill="#3E4347"/>
<path opacity="0.33" d="M12.1902 11.235C12.876 11.235 13.5236 11.5033 14.0188 11.925C13.4855 11.3117 12.7236 10.89 11.8093 10.89C10.2474 10.89 8.95215 12.1933 8.95215 13.765H9.3331C9.52358 12.3467 10.7045 11.235 12.1902 11.235ZM13.5998 14.11C13.5998 13.6117 13.3712 13.19 12.9902 12.9217C13.1426 13.1517 13.2569 13.42 13.2569 13.7267C13.2569 14.5317 12.6093 15.1833 11.8093 15.1833V16.64C11.9236 16.64 12.0379 16.6783 12.1521 16.6783V15.5667C12.9521 15.5667 13.5998 14.915 13.5998 14.11ZM12.1902 19.86C12.9902 19.86 13.6379 19.2083 13.6379 18.4033C13.6379 17.905 13.4093 17.4833 13.0283 17.215C13.1807 17.445 13.295 17.7133 13.295 18.02C13.295 18.825 12.6474 19.4767 11.8474 19.4767C11.5426 19.4767 11.276 19.3617 11.0474 19.2083C11.276 19.63 11.695 19.86 12.1902 19.86ZM10.4379 18.4417C10.3998 18.3267 10.3998 18.2117 10.3998 18.0967H8.95215C8.95215 18.9783 9.3331 19.7833 9.98072 20.32C9.56167 19.8217 9.29501 19.17 9.29501 18.48L10.4379 18.4417Z" fill="white"/>
</svg>
