<svg width="19" height="18" viewBox="0 0 19 18" fill="none" xmlns="http://www.w3.org/2000/svg">
<path fill-rule="evenodd" clip-rule="evenodd" d="M4 1.39062e-05C3.88838 -0.000763321 3.77896 0.0310548 3.68517 0.0915644C3.59138 0.152074 3.51729 0.238643 3.47199 0.340652L2.58532 2.28982L0.499956 2.58713C0.0266169 2.65512 -0.167386 3.23774 0.169285 3.57838L1.7113 5.13558L1.33597 7.31406C1.32132 7.39786 1.32513 7.48386 1.34716 7.56603C1.36918 7.64821 1.40887 7.72459 1.46346 7.78984C1.51806 7.85509 1.58624 7.90765 1.66324 7.94383C1.74025 7.98001 1.82422 7.99895 1.90931 7.99933C2.00977 7.99906 2.1084 7.97239 2.19531 7.92201L4 6.89476L5.80469 7.92267C5.89802 7.976 5.99603 8 6.09136 8C6.17632 7.99951 6.26015 7.98051 6.33702 7.94432C6.41389 7.90814 6.48195 7.85563 6.53645 7.79047C6.59096 7.72531 6.63062 7.64905 6.65265 7.567C6.67468 7.48495 6.67857 7.39909 6.66403 7.31539L6.28869 5.13624L7.83071 3.57904C8.16739 3.2384 7.97338 2.65579 7.50004 2.58779L5.41468 2.29049L4.52801 0.341985C4.48291 0.239727 4.40891 0.152879 4.3151 0.0921224C4.22129 0.0313658 4.11177 -0.000649676 4 1.39062e-05Z" fill="white"/>
<path fill-rule="evenodd" clip-rule="evenodd" d="M15 4.00001C14.8884 3.99924 14.779 4.03105 14.6852 4.09156C14.5914 4.15207 14.5173 4.23864 14.472 4.34065L13.5853 6.28982L11.5 6.58713C11.0266 6.65512 10.8326 7.23774 11.1693 7.57838L12.7113 9.13558L12.336 11.3141C12.3213 11.3979 12.3251 11.4839 12.3472 11.566C12.3692 11.6482 12.4089 11.7246 12.4635 11.7898C12.5181 11.8551 12.5862 11.9076 12.6632 11.9438C12.7402 11.98 12.8242 11.999 12.9093 11.9993C13.0098 11.9991 13.1084 11.9724 13.1953 11.922L15 10.8948L16.8047 11.9227C16.898 11.976 16.996 12 17.0914 12C17.1763 11.9995 17.2602 11.9805 17.337 11.9443C17.4139 11.9081 17.4819 11.8556 17.5365 11.7905C17.591 11.7253 17.6306 11.649 17.6526 11.567C17.6747 11.485 17.6786 11.3991 17.664 11.3154L17.2887 9.13624L18.8307 7.57904C19.1674 7.2384 18.9734 6.65579 18.5 6.58779L16.4147 6.29049L15.528 4.34198C15.4829 4.23973 15.4089 4.15288 15.3151 4.09212C15.2213 4.03137 15.1118 3.99935 15 4.00001Z" fill="white"/>
<path fill-rule="evenodd" clip-rule="evenodd" d="M7 10C6.88838 9.99924 6.77896 10.0311 6.68517 10.0916C6.59138 10.1521 6.51729 10.2386 6.47199 10.3407L5.58532 12.2898L3.49996 12.5871C3.02662 12.6551 2.83261 13.2377 3.16929 13.5784L4.7113 15.1356L4.33597 17.3141C4.32132 17.3979 4.32513 17.4839 4.34716 17.566C4.36918 17.6482 4.40887 17.7246 4.46346 17.7898C4.51806 17.8551 4.58624 17.9076 4.66324 17.9438C4.74025 17.98 4.82422 17.999 4.90931 17.9993C5.00977 17.9991 5.1084 17.9724 5.19531 17.922L7 16.8948L8.80469 17.9227C8.89802 17.976 8.99603 18 9.09136 18C9.17632 17.9995 9.26015 17.9805 9.33702 17.9443C9.41389 17.9081 9.48195 17.8556 9.53645 17.7905C9.59096 17.7253 9.63062 17.649 9.65265 17.567C9.67468 17.485 9.67857 17.3991 9.66403 17.3154L9.28869 15.1362L10.8307 13.579C11.1674 13.2384 10.9734 12.6558 10.5 12.5878L8.41468 12.2905L7.52801 10.342C7.48291 10.2397 7.40891 10.1529 7.3151 10.0921C7.22129 10.0314 7.11177 9.99935 7 10Z" fill="white"/>
</svg>
