<svg width="16" height="16" viewBox="0 0 16 16" fill="none" xmlns="http://www.w3.org/2000/svg">
<path d="M15.9641 6.82911C15.9002 7.10256 15.7614 7.35085 15.5645 7.5439L12.9268 10.2202C12.8999 10.2491 12.8782 10.2829 12.8629 10.3199C12.8541 10.3582 12.8541 10.398 12.8629 10.4363L13.4863 14.2263C13.5383 14.5056 13.5103 14.7948 13.4064 15.0574C13.3101 15.3173 13.1401 15.5405 12.9188 15.6974C12.7039 15.8624 12.4495 15.963 12.1835 15.9883H12.0796C11.8455 15.9878 11.615 15.9279 11.4082 15.8138L8.1311 14.0351C8.09708 14.0147 8.05849 14.004 8.0192 14.004C7.97992 14.004 7.94132 14.0147 7.9073 14.0351L4.63023 15.8221C4.38412 15.9551 4.1077 16.0154 3.83094 15.9966C3.5621 15.9728 3.30484 15.8721 3.0876 15.7057C2.86845 15.543 2.69915 15.3178 2.60004 15.0574C2.49805 14.7939 2.47033 14.5056 2.52011 14.2263L3.14355 10.4446C3.15518 10.4067 3.15518 10.3661 3.14355 10.3282C3.13064 10.2918 3.1117 10.2581 3.0876 10.2285L0.449958 7.53558C0.259016 7.34235 0.123429 7.09777 0.0583072 6.82911C-0.0194357 6.55796 -0.0194357 6.26912 0.0583072 5.99797C0.146177 5.73109 0.304436 5.49527 0.515019 5.31745C0.725603 5.13962 0.980025 5.02695 1.24924 4.99228L4.84603 4.44373C4.88187 4.44278 4.91607 4.42796 4.94195 4.40217C4.97262 4.37812 4.99729 4.34677 5.01388 4.31074L6.69239 0.836557C6.80668 0.587213 6.98732 0.376933 7.21192 0.229821C7.38264 0.117717 7.57425 0.0444574 7.77414 0.0148583C7.97403 -0.0147407 8.17769 -8.86992e-06 8.37171 0.0580854C8.56574 0.11618 8.74574 0.216321 8.89989 0.351925C9.05404 0.487529 9.17884 0.655525 9.26609 0.844868L10.9286 4.30243C10.9487 4.34082 10.9758 4.37471 11.0085 4.40217C11.0373 4.42852 11.0741 4.44327 11.1124 4.44373L14.7652 4.99228C15.0305 5.03384 15.2799 5.15186 15.4845 5.33305C15.6852 5.51341 15.837 5.7453 15.9241 6.00628C16.0089 6.27224 16.0233 6.5565 15.9641 6.82911Z" fill="white"/>
</svg>
